<?xml version="1.0" standalone="no"?>
<!DOCTYPE svg PUBLIC "-//W3C//DTD SVG 20010904//EN"
 "http://www.w3.org/TR/2001/REC-SVG-20010904/DTD/svg10.dtd">
<svg version="1.0" xmlns="http://www.w3.org/2000/svg"
 width="512.000000pt" height="409.000000pt" viewBox="0 0 512.000000 409.000000"
 preserveAspectRatio="xMidYMid meet">

<g transform="translate(0.000000,409.000000) scale(0.100000,-0.100000)"
fill="#000000" stroke="none">
<path d="M4191 3579 c-24 -5 -54 -15 -67 -24 l-24 -15 0 -235 0 -235 -548 0
c-527 0 -552 1 -628 21 -103 28 -315 31 -418 6 -175 -43 -311 -121 -426 -244
-118 -127 -175 -270 -174 -438 1 -141 47 -265 142 -389 43 -56 45 -59 26 -73
-10 -7 -41 -35 -68 -61 -105 -101 -148 -197 -148 -327 0 -136 50 -240 158
-323 l47 -37 -29 -20 c-72 -49 -185 -175 -214 -237 -63 -135 -65 -272 -5 -395
106 -216 395 -323 870 -324 281 0 447 32 634 122 87 43 116 63 186 132 126
125 175 247 175 439 0 267 -150 435 -462 514 -99 26 -116 27 -443 31 l-339 5
-42 29 c-47 32 -81 80 -90 128 -8 38 17 109 49 140 l23 21 57 -19 c193 -67
478 -47 660 46 197 99 343 271 391 459 20 78 20 213 1 287 -8 32 -15 60 -15
62 0 3 142 5 315 5 l315 0 0 -608 c0 -661 0 -664 57 -782 57 -118 190 -211
353 -246 102 -23 321 -23 414 0 113 27 154 50 173 93 36 85 25 301 -17 343
-18 18 -20 18 -77 0 -86 -27 -162 -34 -226 -20 -73 15 -117 45 -144 100 l-23
44 0 538 0 538 233 2 232 3 20 40 c17 34 20 60 20 175 0 115 -3 141 -20 175
l-20 40 -232 3 -233 2 0 235 c0 270 6 254 -104 274 -69 13 -251 13 -315 0z
m-1416 -824 c80 -13 160 -66 210 -139 139 -206 38 -470 -204 -531 -151 -39
-318 40 -388 184 -25 49 -28 67 -28 151 0 109 18 156 86 234 60 67 189 121
264 110 11 -1 38 -6 60 -9z m186 -1671 c129 -38 199 -114 199 -218 0 -125 -78
-216 -229 -268 -58 -20 -85 -23 -221 -23 -135 0 -164 3 -226 23 -82 27 -159
82 -186 132 -50 95 4 258 114 339 l42 31 226 0 c177 0 238 -3 281 -16z"/>
<path d="M775 3109 c-303 -41 -518 -195 -646 -464 -113 -236 -153 -523 -114
-817 64 -485 306 -779 700 -853 125 -24 394 -16 510 14 149 39 283 120 312
189 27 64 28 190 4 296 -29 123 -37 128 -117 75 -130 -88 -267 -143 -387 -155
-74 -8 -168 13 -237 53 -114 65 -205 212 -241 388 -27 130 -22 340 11 454 87
305 293 441 562 372 96 -25 186 -66 273 -125 39 -25 78 -46 87 -46 12 0 23 18
38 68 40 129 39 291 -3 354 -53 77 -190 149 -347 182 -95 19 -314 28 -405 15z"/>
</g>
</svg>
