<?xml version="1.0" standalone="no"?>
<!DOCTYPE svg PUBLIC "-//W3C//DTD SVG 20010904//EN"
 "http://www.w3.org/TR/2001/REC-SVG-20010904/DTD/svg10.dtd">
<svg version="1.0" xmlns="http://www.w3.org/2000/svg"
 width="504.000000pt" height="512.000000pt" viewBox="0 0 504.000000 512.000000"
 preserveAspectRatio="xMidYMid meet">

<g transform="translate(0.000000,512.000000) scale(0.100000,-0.100000)"
fill="#000000" stroke="none">
<path d="M1192 5098 c-89 -20 -92 -21 -76 -39 26 -28 13 -32 -54 -15 -33 9
-76 16 -96 16 -45 0 -341 -114 -308 -118 13 -2 105 5 205 14 507 51 856 -1
1209 -177 43 -22 80 -39 82 -39 5 0 -80 183 -124 270 -10 19 -36 48 -59 64
-39 28 -47 30 -183 37 -269 14 -493 9 -596 -13z"/>
<path d="M1110 4933 c-25 -2 -99 -10 -165 -18 -156 -19 -293 -19 -371 1 -35 8
-73 14 -85 12 -21 -3 -21 -5 12 -48 43 -56 115 -95 354 -191 265 -106 360
-157 510 -274 96 -74 160 -142 292 -308 171 -215 183 -224 517 -421 117 -70
151 -85 158 -75 68 98 84 240 37 339 -103 218 -472 498 -849 644 -127 49 -145
58 -100 50 128 -23 397 -145 575 -261 131 -86 195 -136 293 -228 174 -164 206
-284 132 -499 -29 -88 -39 -156 -21 -156 5 0 40 64 79 143 112 229 168 277
330 285 59 3 92 8 92 16 0 16 -84 60 -165 86 -94 30 -190 77 -310 154 -204
132 -452 285 -517 321 -38 20 -68 38 -68 40 0 2 14 0 31 -5 46 -13 231 -116
719 -397 92 -53 170 -83 216 -83 33 0 34 1 23 22 -26 48 -329 338 -444 424
-340 254 -676 392 -1036 424 -111 10 -146 10 -239 3z"/>
<path d="M2440 4920 c-21 -7 -22 -8 -5 -9 104 -5 467 -58 570 -83 727 -174
1271 -584 1624 -1223 142 -258 234 -547 272 -850 16 -132 13 -439 -6 -580 -68
-513 -289 -966 -660 -1354 -436 -455 -1058 -711 -1735 -712 -670 -1 -1365 331
-1790 855 -151 186 -308 456 -394 674 -259 661 -178 1480 205 2072 53 82 131
181 264 336 l35 40 -66 57 c-36 31 -70 57 -75 57 -13 0 -176 -220 -243 -330
-263 -425 -389 -824 -403 -1280 -13 -423 69 -820 246 -1185 118 -245 240 -420
425 -612 408 -424 895 -683 1447 -770 171 -26 536 -24 724 5 290 45 529 119
770 237 256 125 441 261 645 471 369 381 617 873 695 1379 23 144 30 425 16
575 -77 795 -450 1424 -1101 1858 -300 200 -657 331 -1015 372 -104 11 -408
12 -445 0z"/>
<path d="M520 4775 c0 -4 43 -91 96 -196 123 -244 135 -252 306 -219 116 23
135 24 167 6 l24 -13 -24 -6 c-13 -3 -45 -9 -71 -12 l-47 -7 90 -86 c68 -64
114 -121 184 -226 75 -113 102 -146 136 -165 59 -34 111 -41 204 -30 133 15
125 11 109 66 -51 171 -172 345 -328 472 -152 124 -272 189 -572 309 -109 44
-216 87 -236 96 -21 9 -38 14 -38 11z"/>
<path d="M2760 3890 c-102 -20 -165 -90 -275 -312 -80 -158 -85 -173 -85 -231
0 -71 17 -114 78 -201 23 -33 46 -75 52 -95 13 -48 13 -217 -1 -283 -30 -147
-162 -331 -257 -359 -114 -33 -201 69 -202 237 0 111 73 259 124 252 33 -5 30
-31 -6 -48 -43 -19 -58 -61 -37 -98 45 -82 158 16 159 138 0 82 -56 139 -124
126 -53 -11 -94 -53 -136 -139 -50 -105 -70 -189 -70 -302 0 -247 117 -419
286 -417 30 0 72 9 99 21 60 27 164 126 233 225 59 83 80 90 38 13 -24 -46
-34 -94 -57 -277 -14 -113 -57 -296 -95 -400 -90 -252 -246 -430 -374 -430
-56 0 -94 40 -111 115 -15 67 -7 99 60 236 35 72 42 94 29 85 -28 -16 -93
-118 -119 -184 -42 -110 -27 -255 34 -320 74 -80 230 -91 357 -27 180 92 371
411 465 783 11 39 22 72 25 72 4 0 2 -28 -3 -62 -14 -91 -12 -187 5 -233 9
-22 65 -143 126 -270 137 -287 162 -356 169 -461 10 -141 -13 -214 -67 -214
-26 0 -97 64 -120 109 -20 40 -36 113 -46 211 -10 88 -22 53 -23 -63 -1 -104
22 -183 77 -265 48 -73 83 -94 146 -89 65 6 90 34 105 120 24 140 7 262 -62
439 -87 220 -88 225 -71 203 32 -39 124 -242 150 -330 22 -74 27 -111 28 -205
1 -104 -2 -122 -27 -181 -15 -36 -27 -68 -27 -72 0 -8 49 7 86 26 128 67 163
265 93 533 -11 43 -45 141 -75 216 -30 76 -54 143 -54 149 0 7 55 -42 123
-108 180 -177 280 -233 417 -233 63 0 73 3 104 30 82 73 55 144 -133 348 -136
148 -146 166 -115 210 21 30 68 29 146 -3 l62 -25 -25 26 c-32 35 -115 74
-159 74 -44 0 -97 -32 -110 -66 -28 -73 1 -132 131 -270 119 -124 149 -163
149 -193 0 -61 -105 -37 -185 43 -55 55 -119 146 -209 298 -71 119 -113 159
-197 187 -98 33 -106 44 -24 34 106 -12 213 -8 280 11 33 9 150 62 260 117
211 105 278 127 359 115 90 -14 146 -79 115 -134 -25 -45 -55 -53 -134 -37
-39 8 -72 15 -74 15 -11 0 37 -44 61 -56 62 -32 179 -8 206 43 25 45 17 115
-15 148 -53 53 -126 78 -243 83 -119 5 -170 -5 -340 -67 -251 -92 -410 -94
-491 -4 l-24 27 26 -17 c46 -28 146 -57 198 -57 27 0 77 9 112 20 104 32 105
40 4 34 -105 -7 -151 3 -217 46 -119 79 -208 320 -208 561 0 48 7 164 16 256
9 92 14 211 12 264 -3 83 -8 104 -36 161 -18 37 -61 97 -98 137 -39 42 -60 71
-51 71 9 0 18 -4 21 -9 3 -5 34 -33 67 -62 52 -45 61 -49 54 -29 -8 27 -137
224 -164 251 -18 19 -117 30 -171 19z m126 -332 c89 -99 103 -181 80 -453 -25
-303 -34 -296 -32 25 l1 285 -28 55 c-16 30 -54 81 -85 114 l-57 59 44 -24
c23 -13 58 -41 77 -61z m-140 -31 c36 -25 57 -50 82 -98 96 -187 11 -391 -151
-363 l-42 7 54 17 c105 35 147 88 145 185 -2 89 -34 163 -101 229 -63 63 -58
72 13 23z m-219 -46 c-42 -47 -52 -85 -37 -143 16 -58 44 -94 90 -118 88 -45
150 -11 150 83 0 137 -77 211 -147 141 -24 -24 -25 -30 -20 -95 3 -38 4 -69 2
-69 -9 0 -45 80 -45 101 0 34 29 85 56 98 110 50 203 -47 192 -201 -3 -43 -10
-64 -28 -83 -126 -134 -349 84 -265 259 15 31 55 62 84 66 2 0 -12 -17 -32
-39z"/>
<path d="M3562 3565 c-39 -32 -48 -72 -28 -120 9 -21 72 -94 144 -169 102
-104 136 -146 163 -201 32 -67 34 -75 34 -180 0 -102 -2 -114 -30 -170 -42
-84 -128 -168 -210 -207 -114 -53 -259 -48 -402 13 -23 10 -43 16 -43 14 0 -3
16 -45 36 -95 24 -59 46 -99 66 -115 28 -24 35 -25 159 -25 154 0 216 17 322
87 192 127 272 359 199 573 -51 149 -125 250 -277 382 -52 45 -99 94 -106 109
-23 56 18 109 84 109 16 0 26 4 22 10 -3 6 -28 10 -55 10 -37 0 -55 -6 -78
-25z"/>
<path d="M3655 3528 c-35 -18 -45 -38 -33 -61 9 -21 143 -143 192 -176 20 -14
20 -14 6 4 -8 11 -42 49 -76 85 -73 77 -85 105 -55 126 40 29 11 47 -34 22z"/>
<path d="M715 3298 c23 -163 96 -269 285 -413 90 -68 163 -139 203 -195 17
-25 17 -24 15 51 -3 64 -9 87 -41 152 -48 97 -108 159 -235 241 -109 70 -166
123 -197 180 -27 51 -38 45 -30 -16z"/>
<path d="M700 3129 c0 -6 14 -41 32 -78 25 -53 59 -94 168 -206 75 -77 151
-161 169 -187 38 -57 76 -155 86 -221 9 -59 28 -79 69 -75 30 3 31 5 29 43 -4
62 -39 164 -80 233 -45 76 -117 151 -220 230 -94 72 -180 160 -217 225 -28 48
-36 56 -36 36z"/>
<path d="M2090 3056 c-107 -24 -161 -71 -216 -191 -47 -101 -64 -179 -64 -286
0 -148 48 -284 132 -375 61 -66 167 -111 228 -95 23 6 22 8 -23 34 -93 55
-160 150 -192 274 -34 128 -10 350 50 477 23 49 100 132 150 163 26 15 7 15
-65 -1z"/>
<path d="M3163 2692 c3 -34 12 -74 21 -87 21 -32 77 -60 160 -79 100 -24 181
-21 241 9 l50 24 -65 -6 c-127 -11 -235 33 -349 141 l-64 61 6 -63z"/>
<path d="M1001 2325 c-115 -26 -199 -100 -246 -215 -11 -28 -20 -82 -23 -145
-8 -178 39 -344 146 -514 56 -88 146 -201 161 -201 4 0 4 34 0 75 -8 79 -9 82
-107 243 -174 289 -152 594 51 683 61 26 177 31 267 10 89 -21 208 -85 310
-168 79 -64 90 -71 63 -38 -162 204 -420 316 -622 270z"/>
<path d="M2521 2223 c-12 -14 -24 -36 -26 -47 -8 -34 -35 -313 -34 -348 2 -85
74 230 82 360 2 34 2 62 1 62 -1 0 -12 -12 -23 -27z"/>
<path d="M1045 2223 l-29 -16 34 -29 c54 -46 113 -72 262 -116 75 -23 178 -60
230 -82 51 -23 99 -44 106 -47 75 -32 -174 181 -270 232 -75 40 -200 75 -262
75 -23 -1 -54 -8 -71 -17z"/>
<path d="M4146 2132 c-32 -47 -32 -48 0 -56 52 -13 97 47 62 82 -20 20 -34 14
-62 -26z"/>
<path d="M1160 2038 c-9 -23 -60 -330 -81 -493 -17 -134 -7 -283 25 -380 79
-234 267 -413 523 -495 544 -175 1053 145 1249 787 23 75 25 94 16 128 -16 60
-81 197 -90 191 -5 -3 -25 -45 -46 -94 -93 -226 -252 -438 -408 -543 -144 -98
-289 -135 -498 -126 -158 6 -244 26 -398 92 -58 25 -107 44 -109 42 -1 -2 11
-31 28 -65 44 -89 111 -146 209 -176 129 -41 245 -59 375 -59 232 1 414 68
611 224 41 33 78 58 81 55 13 -12 -156 -177 -239 -234 -223 -153 -498 -178
-768 -68 -247 99 -385 290 -421 578 -12 101 -7 278 15 481 8 68 10 131 6 143
-15 39 -65 46 -80 12z"/>
<path d="M2210 1936 c-165 -61 -321 -197 -385 -337 -52 -114 -58 -274 -15
-364 58 -120 235 -173 390 -116 l55 20 -66 0 c-93 1 -162 24 -208 70 -89 89
-95 259 -14 429 20 43 59 89 156 185 71 70 127 127 125 126 -2 0 -19 -6 -38
-13z"/>
<path d="M3386 1432 c-9 -15 197 -184 261 -214 74 -35 163 -46 218 -28 51 17
121 88 136 138 12 42 5 112 -11 112 -6 0 -10 -11 -10 -25 0 -58 -47 -133 -102
-161 -84 -43 -276 20 -411 136 -59 50 -72 57 -81 42z"/>
</g>
</svg>
